<svg width="512" height="512" viewBox="0 0 512 512" fill="none" xmlns="http://www.w3.org/2000/svg">
  <rect width="512" height="512" fill="url(#adaptive-gradient)"/>
  <g transform="translate(256, 256)">
    <circle r="160" fill="white" opacity="0.15"/>
    <circle r="120" fill="white" opacity="0.2"/>
    <path d="M0 -80C44.183 -80 80 -44.183 80 0s-35.817 80-80 80-80-35.817-80-80 35.817-80 80-80zm40 80h-20v20c0 11.046-8.954 20-20 20s-20-8.954-20-20v-20h-20c-11.046 0-20-8.954-20-20s8.954-20 20-20h20v-20c0-11.046 8.954-20 20-20s20 8.954 20 20v20h20c11.046 0 20 8.954 20 20s-8.954 20-20 20z" fill="white"/>
  </g>
  <defs>
    <linearGradient id="adaptive-gradient" x1="0" y1="0" x2="512" y2="512" gradientUnits="userSpaceOnUse">
      <stop stop-color="#667EEA"/>
      <stop offset="1" stop-color="#764BA2"/>
    </linearGradient>
  </defs>
</svg>