<svg width="1242" height="2436" viewBox="0 0 1242 2436" fill="none" xmlns="http://www.w3.org/2000/svg">
  <rect width="1242" height="2436" fill="url(#splash-gradient)"/>
  <g transform="translate(621, 1218)">
    <circle r="150" fill="white" opacity="0.9"/>
    <path d="M-75 -37.5C-75 -37.5 -37.5 -75 0 -75C37.5 -75 75 -37.5 75 -37.5V37.5C75 58.2107 58.2107 75 37.5 75H-37.5C-58.2107 75 -75 58.2107 -75 37.5V-37.5Z" fill="url(#icon-gradient)"/>
    <path d="M0 -30C16.569 -30 30 -16.569 30 0v15c0 8.284-6.716 15-15 15h-30c-8.284 0-15-6.716-15-15v-15c0-16.569 13.431-30 30-30z" fill="white"/>
  </g>
  <text x="621" y="1450" font-family="system-ui, -apple-system, sans-serif" font-size="72" font-weight="bold" text-anchor="middle" fill="white">Kids Points</text>
  <text x="621" y="1520" font-family="system-ui, -apple-system, sans-serif" font-size="36" text-anchor="middle" fill="white" opacity="0.8">Gamify Learning!</text>
  <defs>
    <linearGradient id="splash-gradient" x1="0" y1="0" x2="1242" y2="2436" gradientUnits="userSpaceOnUse">
      <stop stop-color="#667EEA"/>
      <stop offset="0.5" stop-color="#9F7AEA"/>
      <stop offset="1" stop-color="#764BA2"/>
    </linearGradient>
    <linearGradient id="icon-gradient" x1="-75" y1="-75" x2="75" y2="75" gradientUnits="userSpaceOnUse">
      <stop stop-color="#667EEA"/>
      <stop offset="1" stop-color="#764BA2"/>
    </linearGradient>
  </defs>
</svg>